<svg xmlns="http://www.w3.org/2000/svg" xmlns:xlink="http://www.w3.org/1999/xlink" width="100" zoomAndPan="magnify" viewBox="0 0 75 30.000001" height="40" preserveAspectRatio="xMidYMid meet" version="1.0"><defs><clipPath id="91d54daa74"><path d="M 1.4375 0 L 73.5625 0 L 73.5625 29.03125 L 1.4375 29.03125 Z M 1.4375 0 " clip-rule="nonzero"/></clipPath><clipPath id="83c46f0f57"><path d="M 73.066406 0 L 1.933594 0 C 1.78125 0 1.636719 0.0820312 1.554688 0.210938 C 1.472656 0.34375 1.464844 0.511719 1.535156 0.648438 L 8.144531 13.867188 C 8.347656 14.277344 8.347656 14.757812 8.144531 15.164062 L 1.535156 28.382812 C 1.464844 28.523438 1.472656 28.6875 1.554688 28.820312 C 1.636719 28.953125 1.78125 29.03125 1.933594 29.03125 L 73.066406 29.03125 C 73.21875 29.03125 73.363281 28.953125 73.445312 28.820312 C 73.527344 28.6875 73.535156 28.523438 73.464844 28.382812 L 66.855469 15.164062 C 66.652344 14.757812 66.652344 14.277344 66.855469 13.867188 L 73.464844 0.648438 C 73.535156 0.511719 73.527344 0.34375 73.445312 0.210938 C 73.363281 0.0820312 73.21875 0 73.066406 0 Z M 73.066406 0 " clip-rule="nonzero"/></clipPath><clipPath id="50d0c8383b"><path d="M 0.441406 0 L 72.5625 0 L 72.5625 29.03125 L 0.441406 29.03125 Z M 0.441406 0 " clip-rule="nonzero"/></clipPath><clipPath id="4ab7200e70"><path d="M 72.066406 0 L 0.933594 0 C 0.78125 0 0.636719 0.0820312 0.554688 0.210938 C 0.472656 0.34375 0.464844 0.511719 0.535156 0.648438 L 7.144531 13.867188 C 7.347656 14.277344 7.347656 14.757812 7.144531 15.164062 L 0.535156 28.382812 C 0.464844 28.523438 0.472656 28.6875 0.554688 28.820312 C 0.636719 28.953125 0.78125 29.03125 0.933594 29.03125 L 72.066406 29.03125 C 72.21875 29.03125 72.363281 28.953125 72.445312 28.820312 C 72.527344 28.6875 72.535156 28.523438 72.464844 28.382812 L 65.855469 15.164062 C 65.652344 14.757812 65.652344 14.277344 65.855469 13.867188 L 72.464844 0.648438 C 72.535156 0.511719 72.527344 0.34375 72.445312 0.210938 C 72.363281 0.0820312 72.21875 0 72.066406 0 Z M 72.066406 0 " clip-rule="nonzero"/></clipPath><clipPath id="c5287bbea9"><rect x="0" width="73" y="0" height="30"/></clipPath></defs><g clip-path="url(#91d54daa74)"><g clip-path="url(#83c46f0f57)"><g transform="matrix(1, 0, 0, 1, 1, 0.000000000000005692)"><g clip-path="url(#c5287bbea9)"><g clip-path="url(#50d0c8383b)"><g clip-path="url(#4ab7200e70)"><path fill="#95cdea" d="M 0.210938 0 L 72.789062 0 L 72.789062 29.03125 L 0.210938 29.03125 Z M 0.210938 0 " fill-opacity="1" fill-rule="nonzero"/></g></g></g></g></g></g></svg>