<svg xmlns="http://www.w3.org/2000/svg" xmlns:xlink="http://www.w3.org/1999/xlink" width="100" zoomAndPan="magnify" viewBox="0 0 75 30.000001" height="40" preserveAspectRatio="xMidYMid meet" version="1.0"><defs><clipPath id="a70ddafbaf"><path d="M 1.210938 0 L 73.789062 0 L 73.789062 29.03125 L 1.210938 29.03125 Z M 1.210938 0 " clip-rule="nonzero"/></clipPath><clipPath id="1518809702"><path d="M 73.066406 0 L 1.933594 0 C 1.78125 0 1.636719 0.0820312 1.554688 0.210938 C 1.472656 0.34375 1.464844 0.511719 1.535156 0.648438 L 8.144531 13.867188 C 8.347656 14.277344 8.347656 14.757812 8.144531 15.164062 L 1.535156 28.382812 C 1.464844 28.523438 1.472656 28.6875 1.554688 28.820312 C 1.636719 28.953125 1.78125 29.03125 1.933594 29.03125 L 73.066406 29.03125 C 73.21875 29.03125 73.363281 28.953125 73.445312 28.820312 C 73.527344 28.6875 73.535156 28.523438 73.464844 28.382812 L 66.855469 15.164062 C 66.652344 14.757812 66.652344 14.277344 66.855469 13.867188 L 73.464844 0.648438 C 73.535156 0.511719 73.527344 0.34375 73.445312 0.210938 C 73.363281 0.0820312 73.21875 0 73.066406 0 Z M 73.066406 0 " clip-rule="nonzero"/></clipPath><clipPath id="603e3c4ffe"><path d="M 36 0 L 39 0 L 39 29.03125 L 36 29.03125 Z M 36 0 " clip-rule="nonzero"/></clipPath><clipPath id="da6a5eee3d"><path d="M 41 0 L 44 0 L 44 29.03125 L 41 29.03125 Z M 41 0 " clip-rule="nonzero"/></clipPath><clipPath id="26b8f97656"><path d="M 46 0 L 49 0 L 49 29.03125 L 46 29.03125 Z M 46 0 " clip-rule="nonzero"/></clipPath><clipPath id="cc697c1281"><path d="M 52 0 L 54 0 L 54 29.03125 L 52 29.03125 Z M 52 0 " clip-rule="nonzero"/></clipPath><clipPath id="eeee3c6eae"><path d="M 57 0 L 59 0 L 59 29.03125 L 57 29.03125 Z M 57 0 " clip-rule="nonzero"/></clipPath><clipPath id="d6a045f9d0"><path d="M 62 0 L 64 0 L 64 29.03125 L 62 29.03125 Z M 62 0 " clip-rule="nonzero"/></clipPath><clipPath id="061af2a761"><path d="M 67 18 L 69 18 L 69 29.03125 L 67 29.03125 Z M 67 18 " clip-rule="nonzero"/></clipPath><clipPath id="f6f22ff648"><path d="M 31 0 L 34 0 L 34 29.03125 L 31 29.03125 Z M 31 0 " clip-rule="nonzero"/></clipPath><clipPath id="d448199201"><path d="M 26 0 L 29 0 L 29 29.03125 L 26 29.03125 Z M 26 0 " clip-rule="nonzero"/></clipPath><clipPath id="97ead191bb"><path d="M 21 0 L 23 0 L 23 29.03125 L 21 29.03125 Z M 21 0 " clip-rule="nonzero"/></clipPath><clipPath id="2d084a7e7f"><path d="M 16 0 L 18 0 L 18 29.03125 L 16 29.03125 Z M 16 0 " clip-rule="nonzero"/></clipPath><clipPath id="79d6e12a33"><path d="M 11 0 L 13 0 L 13 29.03125 L 11 29.03125 Z M 11 0 " clip-rule="nonzero"/></clipPath><clipPath id="e632a6f32a"><path d="M 6 18 L 8 18 L 8 29.03125 L 6 29.03125 Z M 6 18 " clip-rule="nonzero"/></clipPath></defs><g clip-path="url(#a70ddafbaf)"><g clip-path="url(#1518809702)"><path stroke-linecap="butt" transform="matrix(0.725806, 0, 0, 0.725806, 1.209676, 0.00000193548)" fill="none" stroke-linejoin="miter" d="M 99.002607 -0.00000266667 L 0.997398 -0.00000266667 C 0.787502 -0.00000266667 0.58837 0.113018 0.475349 0.290622 C 0.362328 0.473608 0.351564 0.705032 0.448439 0.8934 L 9.554689 19.1059 C 9.83455 19.671004 9.83455 20.332984 9.554689 20.892706 L 0.448439 39.105206 C 0.351564 39.298956 0.362328 39.524998 0.475349 39.707984 C 0.58837 39.89097 0.787502 39.998609 0.997398 39.998609 L 99.002607 39.998609 C 99.212502 39.998609 99.411634 39.89097 99.524655 39.707984 C 99.637676 39.524998 99.64844 39.298956 99.551565 39.105206 L 90.445315 20.892706 C 90.165454 20.332984 90.165454 19.671004 90.445315 19.1059 L 99.551565 0.8934 C 99.64844 0.705032 99.637676 0.473608 99.524655 0.290622 C 99.411634 0.113018 99.212502 -0.00000266667 99.002607 -0.00000266667 Z M 99.002607 -0.00000266667 " stroke="#3a5757" stroke-width="4" stroke-opacity="1" stroke-miterlimit="4"/></g></g><g clip-path="url(#603e3c4ffe)"><path stroke-linecap="round" transform="matrix(0.00000000126677, 0.725806, -0.725806, 0.00000000126677, 38.224611, 0.0113427)" fill="none" stroke-linejoin="miter" d="M 1.00156 0.998352 L 38.971178 0.998353 " stroke="#3a5757" stroke-width="2" stroke-opacity="1" stroke-miterlimit="4"/></g><g clip-path="url(#da6a5eee3d)"><path stroke-linecap="round" transform="matrix(0, 0.725806, -0.725806, 0, 43.305259, 0.0113427)" fill="none" stroke-linejoin="miter" d="M 1.00156 1.001828 L 38.971178 1.001828 " stroke="#3a5757" stroke-width="2" stroke-opacity="1" stroke-miterlimit="4"/></g><g clip-path="url(#26b8f97656)"><path stroke-linecap="round" transform="matrix(0, 0.725806, -0.725806, 0, 48.385904, 0.0113427)" fill="none" stroke-linejoin="miter" d="M 1.00156 0.999919 L 38.971178 0.999919 " stroke="#3a5757" stroke-width="2" stroke-opacity="1" stroke-miterlimit="4"/></g><g clip-path="url(#cc697c1281)"><path stroke-linecap="round" transform="matrix(0, 0.725806, -0.725806, 0, 53.466549, 0.0113427)" fill="none" stroke-linejoin="miter" d="M 1.00156 0.998009 L 38.971178 0.998009 " stroke="#3a5757" stroke-width="2" stroke-opacity="1" stroke-miterlimit="4"/></g><g clip-path="url(#eeee3c6eae)"><path stroke-linecap="round" transform="matrix(0, 0.725806, -0.725806, 0, 58.547194, 0.0113427)" fill="none" stroke-linejoin="miter" d="M 1.00156 1.001481 L 38.971178 1.001481 " stroke="#3a5757" stroke-width="2" stroke-opacity="1" stroke-miterlimit="4"/></g><g clip-path="url(#d6a045f9d0)"><path stroke-linecap="round" transform="matrix(0, 0.725806, -0.725806, 0, 63.627839, 0.0113427)" fill="none" stroke-linejoin="miter" d="M 1.00156 0.999571 L 38.971178 0.999571 " stroke="#3a5757" stroke-width="2" stroke-opacity="1" stroke-miterlimit="4"/></g><path stroke-linecap="round" transform="matrix(0, 0.725806, -0.725806, 0, 68.704048, 0.0157768)" fill="none" stroke-linejoin="miter" d="M 1.000833 1.002313 L 13.373923 1.002313 " stroke="#3a5757" stroke-width="2" stroke-opacity="1" stroke-miterlimit="4"/><g clip-path="url(#061af2a761)"><path stroke-linecap="round" transform="matrix(0.00000000126677, 0.725806, -0.725806, 0.00000000126677, 68.709364, 18.440904)" fill="none" stroke-linejoin="miter" d="M 1.001733 0.998874 L 13.579337 0.998874 " stroke="#3a5757" stroke-width="2" stroke-opacity="1" stroke-miterlimit="4"/></g><g clip-path="url(#f6f22ff648)"><path stroke-linecap="round" transform="matrix(0, -0.725806, 0.725806, 0, 31.692356, 29.031069)" fill="none" stroke-linejoin="miter" d="M 1.000792 0.999733 L 38.970411 0.999733 " stroke="#3a5757" stroke-width="2" stroke-opacity="1" stroke-miterlimit="4"/></g><g clip-path="url(#d448199201)"><path stroke-linecap="round" transform="matrix(0, -0.725806, 0.725806, 0, 26.611711, 29.031069)" fill="none" stroke-linejoin="miter" d="M 1.000792 0.997823 L 38.970411 0.997823 " stroke="#3a5757" stroke-width="2" stroke-opacity="1" stroke-miterlimit="4"/></g><g clip-path="url(#97ead191bb)"><path stroke-linecap="round" transform="matrix(0, -0.725806, 0.725806, 0, 21.531064, 29.031069)" fill="none" stroke-linejoin="miter" d="M 1.000792 1.001298 L 38.970411 1.001298 " stroke="#3a5757" stroke-width="2" stroke-opacity="1" stroke-miterlimit="4"/></g><g clip-path="url(#2d084a7e7f)"><path stroke-linecap="round" transform="matrix(0, -0.725806, 0.725806, 0, 16.450419, 29.031069)" fill="none" stroke-linejoin="miter" d="M 1.000792 0.999388 L 38.970411 0.999388 " stroke="#3a5757" stroke-width="2" stroke-opacity="1" stroke-miterlimit="4"/></g><g clip-path="url(#79d6e12a33)"><path stroke-linecap="round" transform="matrix(0, -0.725806, 0.725806, 0, 11.369775, 29.031069)" fill="none" stroke-linejoin="miter" d="M 1.000792 0.997477 L 38.970411 0.997477 " stroke="#3a5757" stroke-width="2" stroke-opacity="1" stroke-miterlimit="4"/></g><g clip-path="url(#e632a6f32a)"><path stroke-linecap="round" transform="matrix(0, -0.725806, 0.725806, 0, 6.284696, 29.026634)" fill="none" stroke-linejoin="miter" d="M 1.000063 1.001676 L 13.373154 1.001676 " stroke="#3a5757" stroke-width="2" stroke-opacity="1" stroke-miterlimit="4"/></g><path stroke-linecap="round" transform="matrix(0, -0.725806, 0.725806, 0, 6.290013, 10.601506)" fill="none" stroke-linejoin="miter" d="M 1.000963 0.999732 L 13.578567 0.999732 " stroke="#3a5757" stroke-width="2" stroke-opacity="1" stroke-miterlimit="4"/></svg>