<svg xmlns="http://www.w3.org/2000/svg" xmlns:xlink="http://www.w3.org/1999/xlink" width="100" zoomAndPan="magnify" viewBox="0 0 75 30.000001" height="40" preserveAspectRatio="xMidYMid meet" version="1.0"><defs><clipPath id="f8152fff50"><path d="M 1.210938 0 L 73.789062 0 L 73.789062 29.03125 L 1.210938 29.03125 Z M 1.210938 0 " clip-rule="nonzero"/></clipPath><clipPath id="8642ca28f9"><path d="M 73.066406 0 L 1.933594 0 C 1.78125 0 1.636719 0.0820312 1.554688 0.210938 C 1.472656 0.34375 1.464844 0.511719 1.535156 0.648438 L 8.144531 13.867188 C 8.347656 14.277344 8.347656 14.757812 8.144531 15.164062 L 1.535156 28.382812 C 1.464844 28.523438 1.472656 28.6875 1.554688 28.820312 C 1.636719 28.953125 1.78125 29.03125 1.933594 29.03125 L 73.066406 29.03125 C 73.21875 29.03125 73.363281 28.953125 73.445312 28.820312 C 73.527344 28.6875 73.535156 28.523438 73.464844 28.382812 L 66.855469 15.164062 C 66.652344 14.757812 66.652344 14.277344 66.855469 13.867188 L 73.464844 0.648438 C 73.535156 0.511719 73.527344 0.34375 73.445312 0.210938 C 73.363281 0.0820312 73.21875 0 73.066406 0 Z M 73.066406 0 " clip-rule="nonzero"/></clipPath></defs><g clip-path="url(#f8152fff50)"><g clip-path="url(#8642ca28f9)"><path stroke-linecap="butt" transform="matrix(0.725806, 0, 0, 0.725806, 1.209676, 0.00000193548)" fill="none" stroke-linejoin="miter" d="M 99.002607 -0.00000266667 L 0.997398 -0.00000266667 C 0.787502 -0.00000266667 0.58837 0.113018 0.475349 0.290622 C 0.362328 0.473608 0.351564 0.705032 0.448439 0.8934 L 9.554689 19.1059 C 9.83455 19.671004 9.83455 20.332984 9.554689 20.892706 L 0.448439 39.105206 C 0.351564 39.298956 0.362328 39.524998 0.475349 39.707984 C 0.58837 39.89097 0.787502 39.998609 0.997398 39.998609 L 99.002607 39.998609 C 99.212502 39.998609 99.411634 39.89097 99.524655 39.707984 C 99.637676 39.524998 99.64844 39.298956 99.551565 39.105206 L 90.445315 20.892706 C 90.165454 20.332984 90.165454 19.671004 90.445315 19.1059 L 99.551565 0.8934 C 99.64844 0.705032 99.637676 0.473608 99.524655 0.290622 C 99.411634 0.113018 99.212502 -0.00000266667 99.002607 -0.00000266667 Z M 99.002607 -0.00000266667 " stroke="#ffcd00" stroke-width="4" stroke-opacity="1" stroke-miterlimit="4"/></g></g></svg>