<svg xmlns="http://www.w3.org/2000/svg" xmlns:xlink="http://www.w3.org/1999/xlink" width="100" zoomAndPan="magnify" viewBox="0 0 75 30.000001" height="40" preserveAspectRatio="xMidYMid meet" version="1.0"><defs><clipPath id="7b0e05f505"><path d="M 1.222656 0 L 73.789062 0 L 73.789062 29.03125 L 1.222656 29.03125 Z M 1.222656 0 " clip-rule="nonzero"/></clipPath><clipPath id="2604e3d60b"><path d="M 73.777344 14.511719 C 73.777344 18.359375 72.246094 22.050781 69.527344 24.769531 C 66.804688 27.492188 63.113281 29.019531 59.265625 29.019531 L 15.734375 29.019531 C 7.71875 29.019531 1.222656 22.523438 1.222656 14.511719 C 1.222656 6.496094 7.71875 0 15.734375 0 L 59.265625 0 C 63.113281 0 66.804688 1.527344 69.527344 4.25 C 72.246094 6.972656 73.777344 10.660156 73.777344 14.511719 Z M 73.777344 14.511719 " clip-rule="nonzero"/></clipPath><clipPath id="e2984d11ac"><path d="M 36 0 L 39 0 L 39 29.03125 L 36 29.03125 Z M 36 0 " clip-rule="nonzero"/></clipPath><clipPath id="ffb8677b93"><path d="M 41 0 L 44 0 L 44 29.03125 L 41 29.03125 Z M 41 0 " clip-rule="nonzero"/></clipPath><clipPath id="698a706a4f"><path d="M 46 0 L 49 0 L 49 29.03125 L 46 29.03125 Z M 46 0 " clip-rule="nonzero"/></clipPath><clipPath id="9889438f19"><path d="M 52 0 L 54 0 L 54 29.03125 L 52 29.03125 Z M 52 0 " clip-rule="nonzero"/></clipPath><clipPath id="bddc7ce840"><path d="M 57 0 L 59 0 L 59 29.03125 L 57 29.03125 Z M 57 0 " clip-rule="nonzero"/></clipPath><clipPath id="12cbfd9861"><path d="M 31 0 L 34 0 L 34 29.03125 L 31 29.03125 Z M 31 0 " clip-rule="nonzero"/></clipPath><clipPath id="0857bacbec"><path d="M 26 0 L 29 0 L 29 29.03125 L 26 29.03125 Z M 26 0 " clip-rule="nonzero"/></clipPath><clipPath id="9f9cf5c87a"><path d="M 21 0 L 23 0 L 23 29.03125 L 21 29.03125 Z M 21 0 " clip-rule="nonzero"/></clipPath><clipPath id="4df9ddf38f"><path d="M 16 0 L 18 0 L 18 29.03125 L 16 29.03125 Z M 16 0 " clip-rule="nonzero"/></clipPath></defs><g clip-path="url(#7b0e05f505)"><g clip-path="url(#2604e3d60b)"><path stroke-linecap="butt" transform="matrix(0.725806, 0, 0, 0.725806, 1.223511, 0.00000193548)" fill="none" stroke-linejoin="miter" d="M 99.963059 19.993921 C 99.963059 25.295136 97.853337 30.381074 94.107503 34.126907 C 90.356288 37.878123 85.270351 39.982463 79.969135 39.982463 L 19.992746 39.982463 C 8.948996 39.982463 -0.00117789 31.032289 -0.00117789 19.993921 C -0.00117789 8.950171 8.948996 -0.00000266667 19.992746 -0.00000266667 L 79.969135 -0.00000266667 C 85.270351 -0.00000266667 90.356288 2.104338 94.107503 5.855553 C 97.853337 9.606768 99.963059 14.687324 99.963059 19.993921 Z M 99.963059 19.993921 " stroke="#ffcd00" stroke-width="4" stroke-opacity="1" stroke-miterlimit="4"/></g></g><g clip-path="url(#e2984d11ac)"><path stroke-linecap="round" transform="matrix(0, 0.725806, -0.725806, 0, 38.224614, 0.00119271)" fill="none" stroke-linejoin="miter" d="M 0.999398 0.998357 L 38.974399 0.998357 " stroke="#ffcd00" stroke-width="2" stroke-opacity="1" stroke-miterlimit="4"/></g><g clip-path="url(#ffb8677b93)"><path stroke-linecap="round" transform="matrix(0, 0.725806, -0.725806, 0, 43.305259, 0.0214926)" fill="none" stroke-linejoin="miter" d="M 0.998339 1.001828 L 38.97334 1.001828 " stroke="#ffcd00" stroke-width="2" stroke-opacity="1" stroke-miterlimit="4"/></g><g clip-path="url(#698a706a4f)"><path stroke-linecap="round" transform="matrix(0, 0.725806, -0.725806, 0, 48.385904, 0.0214926)" fill="none" stroke-linejoin="miter" d="M 0.998339 0.999919 L 38.97334 0.999919 " stroke="#ffcd00" stroke-width="2" stroke-opacity="1" stroke-miterlimit="4"/></g><g clip-path="url(#9889438f19)"><path stroke-linecap="round" transform="matrix(0, 0.725806, -0.725806, 0, 53.466549, 0.00119271)" fill="none" stroke-linejoin="miter" d="M 0.999398 0.998009 L 38.974399 0.998009 " stroke="#ffcd00" stroke-width="2" stroke-opacity="1" stroke-miterlimit="4"/></g><g clip-path="url(#bddc7ce840)"><path stroke-linecap="round" transform="matrix(0, 0.725806, -0.725806, 0, 58.547194, 0.0214926)" fill="none" stroke-linejoin="miter" d="M 0.998339 1.001481 L 38.97334 1.001481 " stroke="#ffcd00" stroke-width="2" stroke-opacity="1" stroke-miterlimit="4"/></g><path stroke-linecap="round" transform="matrix(0, 0.725806, -0.725806, 0, 63.628592, 1.305376)" fill="none" stroke-linejoin="miter" d="M 1.000093 1.000608 L 35.374572 1.000608 " stroke="#ffcd00" stroke-width="2" stroke-opacity="1" stroke-miterlimit="4"/><path stroke-linecap="butt" transform="matrix(0.00000000126677, 0.725806, -0.725806, 0.00000000126677, 68.708336, 4.18025)" fill="none" stroke-linejoin="miter" d="M -0.000775185 0.997457 L 28.458947 0.997457 " stroke="#ffcd00" stroke-width="2" stroke-opacity="1" stroke-miterlimit="4"/><g clip-path="url(#12cbfd9861)"><path stroke-linecap="round" transform="matrix(0, -0.725806, 0.725806, 0, 31.692356, 29.010776)" fill="none" stroke-linejoin="miter" d="M 0.999743 0.999733 L 38.969361 0.999733 " stroke="#ffcd00" stroke-width="2" stroke-opacity="1" stroke-miterlimit="4"/></g><g clip-path="url(#0857bacbec)"><path stroke-linecap="round" transform="matrix(0, -0.725806, 0.725806, 0, 26.611711, 29.010776)" fill="none" stroke-linejoin="miter" d="M 0.999743 0.997823 L 38.969361 0.997823 " stroke="#ffcd00" stroke-width="2" stroke-opacity="1" stroke-miterlimit="4"/></g><g clip-path="url(#9f9cf5c87a)"><path stroke-linecap="round" transform="matrix(0, -0.725806, 0.725806, 0, 21.531064, 29.031062)" fill="none" stroke-linejoin="miter" d="M 1.000783 1.001298 L 38.970401 1.001298 " stroke="#ffcd00" stroke-width="2" stroke-opacity="1" stroke-miterlimit="4"/></g><g clip-path="url(#4df9ddf38f)"><path stroke-linecap="round" transform="matrix(0, -0.725806, 0.725806, 0, 16.450419, 29.010776)" fill="none" stroke-linejoin="miter" d="M 0.999743 0.999388 L 38.969361 0.999388 " stroke="#ffcd00" stroke-width="2" stroke-opacity="1" stroke-miterlimit="4"/></g><path stroke-linecap="round" transform="matrix(0, -0.725806, 0.725806, 0, 11.370522, 27.726878)" fill="none" stroke-linejoin="miter" d="M 1.001477 1.00183 L 35.375956 1.00183 " stroke="#ffcd00" stroke-width="2" stroke-opacity="1" stroke-miterlimit="4"/><path stroke-linecap="butt" transform="matrix(0, -0.725806, 0.725806, 0, 6.28898, 24.852004)" fill="none" stroke-linejoin="miter" d="M 0.000608786 1.001155 L 28.454949 1.001155 " stroke="#ffcd00" stroke-width="2" stroke-opacity="1" stroke-miterlimit="4"/></svg>