<svg xmlns="http://www.w3.org/2000/svg" xmlns:xlink="http://www.w3.org/1999/xlink" width="100" zoomAndPan="magnify" viewBox="0 0 75 30.000001" height="40" preserveAspectRatio="xMidYMid meet" version="1.0"><defs><clipPath id="e336cdd739"><path d="M 1.210938 0 L 73.789062 0 L 73.789062 29.023438 L 1.210938 29.023438 Z M 1.210938 0 " clip-rule="nonzero"/></clipPath><clipPath id="f9be2214c3"><path d="M 73.773438 14.511719 C 73.773438 18.363281 72.242188 22.054688 69.523438 24.773438 C 66.800781 27.496094 63.109375 29.023438 59.261719 29.023438 L 15.722656 29.023438 C 7.707031 29.023438 1.210938 22.527344 1.210938 14.511719 C 1.210938 6.496094 7.707031 0 15.722656 0 L 59.261719 0 C 63.109375 0 66.800781 1.527344 69.523438 4.25 C 72.242188 6.972656 73.773438 10.664062 73.773438 14.511719 Z M 73.773438 14.511719 " clip-rule="nonzero"/></clipPath><clipPath id="87f5da8442"><path d="M 0.210938 0 L 72.789062 0 L 72.789062 29.023438 L 0.210938 29.023438 Z M 0.210938 0 " clip-rule="nonzero"/></clipPath><clipPath id="8b9a3694b0"><path d="M 72.773438 14.511719 C 72.773438 18.363281 71.242188 22.054688 68.523438 24.773438 C 65.800781 27.496094 62.109375 29.023438 58.261719 29.023438 L 14.722656 29.023438 C 6.707031 29.023438 0.210938 22.527344 0.210938 14.511719 C 0.210938 6.496094 6.707031 0 14.722656 0 L 58.261719 0 C 62.109375 0 65.800781 1.527344 68.523438 4.25 C 71.242188 6.972656 72.773438 10.664062 72.773438 14.511719 Z M 72.773438 14.511719 " clip-rule="nonzero"/></clipPath><clipPath id="a5af3ece09"><rect x="0" width="73" y="0" height="30"/></clipPath></defs><g clip-path="url(#e336cdd739)"><g clip-path="url(#f9be2214c3)"><g transform="matrix(1, 0, 0, 1, 1, 0.000000000000005692)"><g clip-path="url(#a5af3ece09)"><g clip-path="url(#87f5da8442)"><g clip-path="url(#8b9a3694b0)"><path fill="#3a5757" d="M 0.210938 0 L 72.773438 0 L 72.773438 29.023438 L 0.210938 29.023438 Z M 0.210938 0 " fill-opacity="1" fill-rule="nonzero"/></g></g></g></g></g></g></svg>