<svg xmlns="http://www.w3.org/2000/svg" xmlns:xlink="http://www.w3.org/1999/xlink" width="100" zoomAndPan="magnify" viewBox="0 0 75 30.000001" height="40" preserveAspectRatio="xMidYMid meet" version="1.0"><defs><clipPath id="823e1545b8"><path d="M 1.222656 0 L 73.789062 0 L 73.789062 29.03125 L 1.222656 29.03125 Z M 1.222656 0 " clip-rule="nonzero"/></clipPath><clipPath id="f7ca0f4c51"><path d="M 73.777344 14.511719 C 73.777344 18.359375 72.246094 22.050781 69.527344 24.769531 C 66.804688 27.492188 63.113281 29.019531 59.265625 29.019531 L 15.734375 29.019531 C 7.71875 29.019531 1.222656 22.523438 1.222656 14.511719 C 1.222656 6.496094 7.71875 0 15.734375 0 L 59.265625 0 C 63.113281 0 66.804688 1.527344 69.527344 4.25 C 72.246094 6.972656 73.777344 10.660156 73.777344 14.511719 Z M 73.777344 14.511719 " clip-rule="nonzero"/></clipPath></defs><g clip-path="url(#823e1545b8)"><g clip-path="url(#f7ca0f4c51)"><path stroke-linecap="butt" transform="matrix(0.725806, 0, 0, 0.725806, 1.223511, 0.00000193548)" fill="none" stroke-linejoin="miter" d="M 99.963059 19.993921 C 99.963059 25.295136 97.853337 30.381074 94.107503 34.126907 C 90.356288 37.878123 85.270351 39.982463 79.969135 39.982463 L 19.992746 39.982463 C 8.948996 39.982463 -0.00117789 31.032289 -0.00117789 19.993921 C -0.00117789 8.950171 8.948996 -0.00000266667 19.992746 -0.00000266667 L 79.969135 -0.00000266667 C 85.270351 -0.00000266667 90.356288 2.104338 94.107503 5.855553 C 97.853337 9.606768 99.963059 14.687324 99.963059 19.993921 Z M 99.963059 19.993921 " stroke="#ffcd00" stroke-width="4" stroke-opacity="1" stroke-miterlimit="4"/></g></g></svg>