<svg xmlns="http://www.w3.org/2000/svg" xmlns:xlink="http://www.w3.org/1999/xlink" width="100" zoomAndPan="magnify" viewBox="0 0 75 30.000001" height="40" preserveAspectRatio="xMidYMid meet" version="1.0"><defs><clipPath id="26f84f7378"><path d="M 1.59375 0 L 73.464844 0 L 73.464844 28.941406 L 1.59375 28.941406 Z M 1.59375 0 " clip-rule="nonzero"/></clipPath><clipPath id="17558c91fd"><path d="M 38.175781 0.269531 L 73.117188 14.246094 C 73.226562 14.289062 73.300781 14.398438 73.300781 14.515625 C 73.300781 14.636719 73.226562 14.742188 73.117188 14.785156 L 38.175781 28.761719 C 37.742188 28.9375 37.257812 28.9375 36.824219 28.761719 L 1.882812 14.785156 C 1.773438 14.742188 1.699219 14.636719 1.699219 14.515625 C 1.699219 14.398438 1.773438 14.289062 1.882812 14.246094 L 36.824219 0.269531 C 37.257812 0.0976562 37.742188 0.0976562 38.175781 0.269531 Z M 38.175781 0.269531 " clip-rule="nonzero"/></clipPath></defs><g clip-path="url(#26f84f7378)"><g clip-path="url(#17558c91fd)"><path stroke-linecap="butt" transform="matrix(0.725806, 0, 0, 0.725806, 1.209678, 0.00000193548)" fill="none" stroke-linejoin="miter" d="M 50.931075 0.371352 L 99.072569 19.627949 C 99.223263 19.68715 99.32552 19.837845 99.32552 19.999303 C 99.32552 20.166143 99.223263 20.311456 99.072569 20.370657 L 50.931075 39.627255 C 50.33368 39.869442 49.666319 39.869442 49.068923 39.627255 L 0.927429 20.370657 C 0.776735 20.311456 0.674478 20.166143 0.674478 19.999303 C 0.674478 19.837845 0.776735 19.68715 0.927429 19.627949 L 49.068923 0.371352 C 49.666319 0.134546 50.33368 0.134546 50.931075 0.371352 Z M 50.931075 0.371352 " stroke="#ffcd00" stroke-width="4" stroke-opacity="1" stroke-miterlimit="4"/></g></g></svg>