<svg xmlns="http://www.w3.org/2000/svg" xmlns:xlink="http://www.w3.org/1999/xlink" width="100" zoomAndPan="magnify" viewBox="0 0 75 30.000001" height="40" preserveAspectRatio="xMidYMid meet" version="1.0"><defs><clipPath id="299c4e0825"><path d="M 1.59375 0 L 73.464844 0 L 73.464844 28.941406 L 1.59375 28.941406 Z M 1.59375 0 " clip-rule="nonzero"/></clipPath><clipPath id="2f721c9924"><path d="M 38.175781 0.269531 L 73.117188 14.246094 C 73.226562 14.289062 73.300781 14.398438 73.300781 14.515625 C 73.300781 14.636719 73.226562 14.742188 73.117188 14.785156 L 38.175781 28.761719 C 37.742188 28.9375 37.257812 28.9375 36.824219 28.761719 L 1.882812 14.785156 C 1.773438 14.742188 1.699219 14.636719 1.699219 14.515625 C 1.699219 14.398438 1.773438 14.289062 1.882812 14.246094 L 36.824219 0.269531 C 37.257812 0.0976562 37.742188 0.0976562 38.175781 0.269531 Z M 38.175781 0.269531 " clip-rule="nonzero"/></clipPath></defs><g clip-path="url(#299c4e0825)"><g clip-path="url(#2f721c9924)"><path stroke-linecap="butt" transform="matrix(0.725806, 0, 0, 0.725806, 1.209678, 0.00000193548)" fill="none" stroke-linejoin="miter" d="M 50.931075 0.371352 L 99.072569 19.627949 C 99.223263 19.68715 99.32552 19.837845 99.32552 19.999303 C 99.32552 20.166143 99.223263 20.311456 99.072569 20.370657 L 50.931075 39.627255 C 50.33368 39.869442 49.666319 39.869442 49.068923 39.627255 L 0.927429 20.370657 C 0.776735 20.311456 0.674478 20.166143 0.674478 19.999303 C 0.674478 19.837845 0.776735 19.68715 0.927429 19.627949 L 49.068923 0.371352 C 49.666319 0.134546 50.33368 0.134546 50.931075 0.371352 Z M 50.931075 0.371352 " stroke="#95cdea" stroke-width="4" stroke-opacity="1" stroke-miterlimit="4"/></g></g><path stroke-linecap="butt" transform="matrix(0, 0.725806, -0.725806, 0, 38.223537, 1.599044)" fill="none" stroke-linejoin="miter" d="M -0.00191236 1.002255 L 35.59965 1.002255 " stroke="#95cdea" stroke-width="2" stroke-opacity="1" stroke-miterlimit="4"/><path stroke-linecap="butt" transform="matrix(0, 0.725806, -0.725806, 0, 43.30645, 2.903228)" fill="none" stroke-linejoin="miter" d="M -0.00121791 0.998088 L 31.999824 0.998088 " stroke="#95cdea" stroke-width="2" stroke-opacity="1" stroke-miterlimit="4"/><path stroke-linecap="butt" transform="matrix(0, 0.725806, -0.725806, 0, 48.386366, 4.4966)" fill="none" stroke-linejoin="miter" d="M -0.000697199 1.000556 L 27.61406 1.000556 " stroke="#95cdea" stroke-width="2" stroke-opacity="1" stroke-miterlimit="4"/><path stroke-linecap="butt" transform="matrix(0, 0.725806, -0.725806, 0, 53.467443, 6.810108)" fill="none" stroke-linejoin="miter" d="M -0.0020859 0.999241 L 21.235067 0.999241 " stroke="#95cdea" stroke-width="2" stroke-opacity="1" stroke-miterlimit="4"/><path stroke-linecap="butt" transform="matrix(0, 0.725806, -0.725806, 0, 58.547252, 8.420491)" fill="none" stroke-linejoin="miter" d="M 0.00190709 1.001561 L 16.798956 1.001561 " stroke="#95cdea" stroke-width="2" stroke-opacity="1" stroke-miterlimit="4"/><path stroke-linecap="butt" transform="matrix(0, 0.725806, -0.725806, 0, 63.626875, 10.733999)" fill="none" stroke-linejoin="miter" d="M 0.00051839 0.998243 L 10.425345 0.998243 " stroke="#95cdea" stroke-width="2" stroke-opacity="1" stroke-miterlimit="4"/><path stroke-linecap="butt" transform="matrix(0, 0.725806, -0.725806, 0, 68.704424, 12.63357)" fill="none" stroke-linejoin="miter" d="M -0.00104411 0.99745 L 5.203296 0.99745 " stroke="#95cdea" stroke-width="2" stroke-opacity="1" stroke-miterlimit="4"/><path stroke-linecap="butt" transform="matrix(0.00000000126677, -0.725806, 0.725806, 0.00000000126677, 31.693547, 26.129034)" fill="none" stroke-linejoin="miter" d="M 0.00017598 0.998092 L 32.001218 0.998092 " stroke="#95cdea" stroke-width="2" stroke-opacity="1" stroke-miterlimit="4"/><path stroke-linecap="butt" transform="matrix(0, -0.725806, 0.725806, 0, 26.612172, 24.535662)" fill="none" stroke-linejoin="miter" d="M 0.000696689 1.00257 L 27.610072 1.00257 " stroke="#95cdea" stroke-width="2" stroke-opacity="1" stroke-miterlimit="4"/><path stroke-linecap="butt" transform="matrix(0, -0.725806, 0.725806, 0, 21.531957, 22.222154)" fill="none" stroke-linejoin="miter" d="M -0.000692013 1.000067 L 21.236461 1.000067 " stroke="#95cdea" stroke-width="2" stroke-opacity="1" stroke-miterlimit="4"/><path stroke-linecap="butt" transform="matrix(0, -0.725806, 0.725806, 0, 16.450477, 20.611771)" fill="none" stroke-linejoin="miter" d="M -0.00208096 0.999307 L 16.80035 0.999307 " stroke="#95cdea" stroke-width="2" stroke-opacity="1" stroke-miterlimit="4"/><path stroke-linecap="butt" transform="matrix(0, -0.725806, 0.725806, 0, 11.36881, 18.298263)" fill="none" stroke-linejoin="miter" d="M 0.00191228 0.998806 L 10.426739 0.998806 " stroke="#95cdea" stroke-width="2" stroke-opacity="1" stroke-miterlimit="4"/><path stroke-linecap="butt" transform="matrix(0.00000000126677, -0.725806, 0.725806, 0.00000000126677, 6.285074, 16.398691)" fill="none" stroke-linejoin="miter" d="M 0.000349782 1.001155 L 5.199308 1.001155 " stroke="#95cdea" stroke-width="2" stroke-opacity="1" stroke-miterlimit="4"/></svg>