<svg xmlns="http://www.w3.org/2000/svg" xmlns:xlink="http://www.w3.org/1999/xlink" width="100" zoomAndPan="magnify" viewBox="0 0 75 30.000001" height="40" preserveAspectRatio="xMidYMid meet" version="1.0"><defs><clipPath id="b4db427c8c"><path d="M 1.664062 0.113281 L 73.335938 0.113281 L 73.335938 28.917969 L 1.664062 28.917969 Z M 1.664062 0.113281 " clip-rule="nonzero"/></clipPath><clipPath id="eb83e2d235"><path d="M 38.175781 0.269531 L 73.117188 14.246094 C 73.226562 14.289062 73.300781 14.398438 73.300781 14.515625 C 73.300781 14.636719 73.226562 14.742188 73.117188 14.785156 L 38.175781 28.761719 C 37.742188 28.9375 37.257812 28.9375 36.824219 28.761719 L 1.882812 14.785156 C 1.773438 14.742188 1.699219 14.636719 1.699219 14.515625 C 1.699219 14.398438 1.773438 14.289062 1.882812 14.246094 L 36.824219 0.269531 C 37.257812 0.0976562 37.742188 0.0976562 38.175781 0.269531 Z M 38.175781 0.269531 " clip-rule="nonzero"/></clipPath><clipPath id="189b10aeff"><path d="M 0.675781 0.113281 L 72.335938 0.113281 L 72.335938 28.917969 L 0.675781 28.917969 Z M 0.675781 0.113281 " clip-rule="nonzero"/></clipPath><clipPath id="19591ec622"><path d="M 37.175781 0.269531 L 72.117188 14.246094 C 72.226562 14.289062 72.300781 14.398438 72.300781 14.515625 C 72.300781 14.636719 72.226562 14.742188 72.117188 14.785156 L 37.175781 28.761719 C 36.742188 28.9375 36.257812 28.9375 35.824219 28.761719 L 0.882812 14.785156 C 0.773438 14.742188 0.699219 14.636719 0.699219 14.515625 C 0.699219 14.398438 0.773438 14.289062 0.882812 14.246094 L 35.824219 0.269531 C 36.257812 0.0976562 36.742188 0.0976562 37.175781 0.269531 Z M 37.175781 0.269531 " clip-rule="nonzero"/></clipPath><clipPath id="9a392546c1"><rect x="0" width="73" y="0" height="29"/></clipPath></defs><g clip-path="url(#b4db427c8c)"><g clip-path="url(#eb83e2d235)"><g transform="matrix(1, 0, 0, 1, 1, 0.000000000000005692)"><g clip-path="url(#9a392546c1)"><g clip-path="url(#189b10aeff)"><g clip-path="url(#19591ec622)"><path fill="#3a5757" d="M 0.210938 0 L 72.789062 0 L 72.789062 29.03125 L 0.210938 29.03125 Z M 0.210938 0 " fill-opacity="1" fill-rule="nonzero"/></g></g></g></g></g></g></svg>